<?xml version="1.0" encoding="utf-8"?>
<!-- Generator: Adobe Illustrator 23.0.2, SVG Export Plug-In . SVG Version: 6.00 Build 0)  -->
<svg version="1.1" id="ae7a9edd-cd64-4e9d-bfd2-214d077cf3c5"
	 xmlns="http://www.w3.org/2000/svg" xmlns:xlink="http://www.w3.org/1999/xlink" x="0px" y="0px" viewBox="0 0 987.6 714"
	 style="enable-background:new 0 0 987.6 714;" xml:space="preserve">
<style type="text/css">
	.st0{fill:#A0616A;}
	.st1{fill:#CCCCCC;}
	.st2{fill:#2F2E41;}
	.st3{opacity:0.2;enable-background:new    ;}
	.st4{fill:#3F3D56;}
	.st5{fill:#6C63FF;}
	.st6{fill:#FFFFFF;}
	.st7{fill:#FFB8B8;}
</style>
<path class="st0" d="M146.4,506.2c-3.1-4.6-9.3-5.9-13.9-2.8c-0.5,0.3-1,0.7-1.4,1.1L99.3,488l2,18.5l29.9,12.7
	c4.1,3.8,10.5,3.5,14.3-0.6C148.6,515.2,149,510,146.4,506.2L146.4,506.2z"/>
<path class="st1" d="M118.2,513.6c-1.2,0.5-2.5,0.5-3.7,0l-30.2-13.1C74,496.1,65.7,488,60.9,477.8L45,444.4
	c-4.9-6.3-3.8-15.4,2.5-20.3c6.3-4.9,15.4-3.8,20.3,2.5c0,0,0,0,0,0l27.9,51.7l25.7,19.4c1.5,1.1,2.1,3.1,1.6,4.9l-2.5,8.2
	c-0.3,0.9-0.8,1.6-1.5,2.2C118.8,513.3,118.5,513.4,118.2,513.6z"/>
<circle class="st0" cx="44.3" cy="380.4" r="24.6"/>
<polygon class="st0" points="54.3,702.6 66.5,702.6 72.4,655.4 54.3,655.4 "/>
<path class="st2" d="M90.2,714l-38.5,0l0,0l0-14.9l0,0l23.6,0C83.5,699.1,90.2,705.8,90.2,714L90.2,714L90.2,714L90.2,714z"/>
<polygon class="st0" points="14.3,702.6 26.5,702.6 32.4,655.4 14.3,655.4 "/>
<path class="st2" d="M50.2,714l-38.5,0l0,0l0-14.9l0,0l23.6,0C43.5,699.1,50.2,705.8,50.2,714L50.2,714L50.2,714L50.2,714L50.2,714z
	"/>
<path class="st2" d="M10,689.1c-0.9-1-1.2-2.3-1.1-3.6l21.5-161l53.3,9.1l5.7-3.4L74.7,682.9c-0.3,2.1-2,3.8-4.1,4l-16.1,1.3
	c-2.5,0.2-4.7-1.6-4.9-4.1c0-0.2,0-0.4,0-0.6l4.2-72.7c0-0.3-0.2-0.5-0.5-0.5c-0.2,0-0.5,0.1-0.5,0.4l-20.7,76.7
	c-0.5,2-2.3,3.3-4.3,3.3H13.4C12.1,690.6,10.9,690.1,10,689.1z"/>
<path class="st1" d="M46.9,535.8c-1.3-1.1-3.2-1.2-4.5-0.2l-10.7,8.3c-2,1.5-4.8,1.2-6.3-0.8c-0.4-0.5-0.6-1-0.8-1.5
	c-5.2-18.3-17.1-64.4-14.2-96.9c1.7-18.4,17.5-32.4,35.4-31.2c12.2,0.8,20.3,7.9,23.9,20.9c8.9,32.1,18.7,91,20.6,102.5
	c0.3,1.8-0.5,3.6-2.1,4.6c-5,3-10.8,4.7-16.7,4.7C64.5,546.3,55.9,543.8,46.9,535.8z"/>
<path class="st0" d="M51,547.3c0.5-5.5-3.7-10.4-9.2-10.8c-0.6,0-1.2,0-1.8,0l-14.9-32.5l-9.8,15.7l15.6,28.4
	c0.9,5.5,6.1,9.3,11.6,8.4C47.1,555.7,50.6,551.9,51,547.3z"/>
<path class="st1" d="M24.2,535.7c-1.2-0.3-2.3-1.1-2.9-2.2L5.6,504.5c-5.4-9.9-6.9-21.4-4.5-32.3l8.2-36.1c0-8,6.5-14.5,14.6-14.4
	s14.5,6.5,14.4,14.6c0,0,0,0,0,0l-10,57.9l8.3,31.2c0.5,1.8-0.2,3.8-1.8,4.9l-7,4.9c-0.8,0.5-1.6,0.8-2.6,0.8
	C24.9,535.8,24.5,535.8,24.2,535.7z"/>
<polygon class="st3" points="36.3,460.6 27.3,498.6 40.3,530.6 31.3,499.6 "/>
<path class="st2" d="M30.3,400.6c-2.2,0-4.4-0.4-6.4-1.2c-0.9-0.3-1.8-0.6-2.7-1c-7.9-3-13.1-11.4-13.3-19.9s4.2-16.6,10.7-22
	c6.5-5.4,14.9-8.2,23.3-8.8c9.1-0.7,19.3,1.6,24.4,9.2c1.3,2,2.3,4.5,1.5,6.9c-0.2,0.7-0.7,1.4-1.2,1.9c-2.3,2-4.5,0.5-6.8,0.4
	c-3.2-0.2-6,2.4-7,5.4s-0.6,6.3,0.3,9.4c0.6,1.8,1,3.8,1.2,5.7c0.1,2-0.8,3.9-2.4,5.1c-2,1.2-4.6,0.5-6.6-0.7s-3.7-2.9-5.8-3.7
	s-5-0.7-6.3,1.3c-0.4,0.7-0.7,1.5-0.8,2.3C31.2,395.8,31.4,395.5,30.3,400.6L30.3,400.6z"/>
<path class="st4" d="M757.3,230.5h-607c-4.8,0-8.7,3.9-8.7,8.7v411.3c0,4.8,3.9,8.7,8.7,8.7h607c2.6,0,5-1.1,6.6-3.1
	c0.1-0.1,0.1-0.2,0.2-0.2c0.5-0.6,0.9-1.3,1.3-2.1c0.4-1,0.7-2.2,0.7-3.3v-256h-2.5v256c0,1.2-0.4,2.4-1,3.4
	c-0.6,0.9-1.4,1.6-2.4,2.1c-0.9,0.5-1.9,0.7-2.8,0.7h-607c-3.4,0-6.2-2.8-6.2-6.2V239.2c0-3.4,2.8-6.2,6.2-6.2h607
	c3.4,0,6.2,2.8,6.2,6.2v55.3h2.5v-55.3C766.1,234.4,762.2,230.5,757.3,230.5z"/>
<rect x="142.9" y="265.4" class="st4" width="622" height="2.5"/>
<circle class="st1" cx="164" cy="249.2" r="7.5"/>
<circle class="st1" cx="185.5" cy="249.2" r="7.5"/>
<circle class="st1" cx="207" cy="249.2" r="7.5"/>
<path class="st4" d="M357.3,608.8c-8.5,0-15.4-7-15.4-15.6c0-2.1,0.5-4.3,1.3-6.2l17.8-39.7c-28.4-25.1-44.6-61.2-44.5-99.1
	c0-73.2,59.5-132.7,132.7-132.7S581.9,375,581.9,448.2s-59.5,132.7-132.7,132.7c-12.8,0-25.5-1.9-37.8-5.6l-45.5,30.8
	C363.4,607.9,360.3,608.8,357.3,608.8z M449.2,334c-63,0-114.2,51-114.2,114.1c0,34.8,15.9,67.7,43.1,89.4l5.6,4.5l-19.2,42.8
	l44-29.8l4.3,1.5c59.8,20.1,124.5-12.1,144.6-71.9c20.1-59.8-12.1-124.5-71.9-144.6C473.9,336,461.6,334,449.2,334z"/>
<circle class="st4" cx="449.2" cy="442" r="18.5"/>
<circle class="st4" cx="396.7" cy="442" r="18.5"/>
<ellipse transform="matrix(0.1602 -0.9871 0.9871 0.1602 -15.0087 866.4064)" class="st4" cx="501.7" cy="442" rx="18.5" ry="18.5"/>
<path class="st1" d="M914.9,368.7h-176c-4.4,0-8-3.6-8-8s3.6-8,8-8h176c4.4,0,8,3.6,8,8S919.3,368.7,914.9,368.7z"/>
<path class="st1" d="M799.9,334.7h-61c-4.4,0-8-3.6-8-8s3.6-8,8-8h61c4.4,0,8,3.6,8,8S804.3,334.7,799.9,334.7z"/>
<circle class="st5" cx="659.2" cy="344.5" r="34"/>
<path class="st4" d="M932.6,292.5h-317c-9.4,0-17,7.6-17,17v70c0,9.4,7.6,17,17,17h317c9.4,0,17-7.6,17-17v-70
	C949.5,300.1,941.9,292.5,932.6,292.5z M947.6,379.5c0,8.3-6.7,15-15,15h-317c-8.3,0-15-6.7-15-15v-70c0-8.3,6.7-15,15-15h317
	c8.3,0,15,6.7,15,15V379.5z"/>
<circle class="st5" cx="947.6" cy="297.5" r="23"/>
<path class="st6" d="M946.8,310.4c-0.2-0.2-0.3-0.4-0.3-0.7v-25.5c0-0.6,0.4-1,1-1c0.6,0,1,0.4,1,1c0,0,0,0,0,0v25.5
	c0,0.6-0.4,1-1,1C947.3,310.7,947,310.6,946.8,310.4z"/>
<path class="st6" d="M934.1,297.7c-0.4-0.4-0.4-1,0-1.4c0.2-0.2,0.4-0.3,0.7-0.3h25.5c0.6,0,1,0.4,1,1c0,0.6-0.4,1-1,1h-25.5
	C934.6,298,934.3,297.9,934.1,297.7z"/>
<path class="st4" d="M975.1,603.2h-48c0,1.4-49.5,2.5-49.5,2.5c-0.8,0.6-1.5,1.3-2.1,2c-1.9,2.2-2.9,5.1-2.9,8v2
	c0,6.9,5.6,12.5,12.5,12.5h90c6.9,0,12.5-5.6,12.5-12.5v-2C987.6,608.8,982,603.2,975.1,603.2z"/>
<rect x="924.1" y="629.7" class="st4" width="13" height="84"/>
<path class="st4" d="M974.1,713.2c0,1.4-19.7,0.5-44,0.5s-44,0.9-44-0.5s19.7-12.5,44-12.5S974.1,711.8,974.1,713.2z"/>
<circle class="st2" cx="934.8" cy="462.6" r="28"/>
<polygon class="st7" points="865.1,702.2 852.8,702.2 847,654.9 865.1,654.9 "/>
<path class="st2" d="M844.1,698.7h23.6l0,0v14.9l0,0h-38.5l0,0l0,0C829.2,705.3,835.8,698.7,844.1,698.7z"/>
<polygon class="st7" points="845.9,695.3 834.2,691.7 842.8,644.8 860.1,650.2 "/>
<path class="st2" d="M826.9,685.7l22.6,7.1l0,0L845,707l0,0l-36.8-11.5l0,0l0,0C810.7,687.6,819.1,683.2,826.9,685.7L826.9,685.7z"
	/>
<path class="st2" d="M942.3,595c-0.3-2.4-0.8-4.7-1.5-7l-2.3-2.9l-6-7.5l-0.3,0c-0.4,0-2.3,0.1-5.1,0.3h0c-1.8,0.1-3.9,0.3-6.3,0.5
	c-0.6,0.1-1.3,0.1-2,0.2v10.4h12.5c1.3,0,2.3,0.9,2.5,2.2c0,0.1,0,0.2,0,0.3c0,1.4-1.1,2.5-2.5,2.5h-72.6c-0.9,0.6-1.8,1.3-2.7,2
	c-2.6,2-4.4,4.7-5.3,7.9c-4.2,18.6-12,53.4-14.3,63.6c-0.3,1.6,0.2,3.2,1.4,4.3c0.4,0.4,0.9,0.7,1.5,0.9l9,3.4
	c0.4,0.1,0.8,0.2,1.1,0.3c0,0,0.1,0,0.1,0c0.1,0,0.2,0,0.3,0c1.9,0,3.5-1.2,4.2-2.9l7.1-18.7l11-28.8l4.3-11.4
	c5,1.2,47.2,10.5,61.4-4.5c1.4-1.5,2.5-3.2,3.2-5.1C942.4,601.8,942.7,598.4,942.3,595z"/>
<path class="st2" d="M954.5,597.7c-0.2-0.9-0.5-1.8-0.8-2.7l-8.3-10.4l-0.3,0c-0.5,0-3,0.2-6.8,0.5c-4.3,0.4-10.3,0.9-17.1,1.8
	c-0.2,0-0.4,0.1-0.6,0.1c-0.7,0.1-1.3,0.2-2,0.3v1.8h12.5c1.3,0,2.3,0.9,2.5,2.2c0,0.1,0,0.2,0,0.3c0,1.4-1.1,2.5-2.5,2.5h-44.2
	c-1.9,0.6-3.8,1.3-5.6,2c-9.3,3.7-16.3,8.5-17.8,14.9c-0.5,2.1-1,4.5-1.6,6.9c-2.1,9.2-4.6,20.5-6.9,30.8v0
	c-0.5,2.1-0.9,4.2-1.4,6.2c-1.9,8.6-3.5,15.9-4.4,19.7c0,0.1,0,0.2-0.1,0.3v0c-0.1,0.8,0,1.6,0.3,2.3l0,0v0c0.3,0.7,0.7,1.3,1.3,1.8
	c0.4,0.3,0.8,0.6,1.3,0.8l9,3.4c0.5,0.2,1,0.3,1.6,0.3c0.8,0,1.5-0.2,2.1-0.5c0.9-0.5,1.7-1.3,2.1-2.3l19.4-51l3-7.9
	c5,1.2,47.2,10.5,61.4-4.5c2.8-3,4.4-7,4.5-11.1C955.5,603.3,955.2,600.4,954.5,597.7z"/>
<path class="st5" d="M953.4,509.5c-0.2-0.2-0.3-0.4-0.5-0.6c-5.4-5.7-13.2-8.4-21-7.4c-3.3,0.4-6.7,1.1-9.9,2
	c-4.2,1.1-8.1,3.2-11.2,6.3c-4.9,4.8-7.6,11.4-7.4,18.2c0,1.4,0,2.8,0,4.2c0,0.7,0,1.3,0,2h9.9c0.4,0,0.9,0,1.3,0.2
	c2.5,0.6,4.2,2.8,4.2,5.3v46.5c0.7,0.2,1.3,0.4,2,0.6c0.2,0.1,0.4,0.1,0.6,0.2c0.2,0.1,0.5,0.1,0.7,0.2c2,0.6,4,1.3,5.9,2h3.3
	c1.3,0,2.3,0.9,2.5,2.2c0.7,0.3,1.3,0.5,2,0.8c2.3,1,4.5,1.9,6.5,2.8c2.7,1.2,5.1,2.4,7.1,3.4c0.6,0.3,1.3,0.5,2,0.5
	c0.9,0,1.8-0.3,2.6-0.9c0.2-0.1,0.3-0.2,0.4-0.4c1.1-1,1.6-2.5,1.4-4c-1-7.9-1.3-15.8-0.9-23.7c0.3-6.7,0.9-13.5,1.7-20.1
	c0.4-3.6,0.9-7.1,1.4-10.4c0.5-3.2,1-6.3,1.5-9.2C960.8,522.8,958.5,515.1,953.4,509.5z"/>
<path class="st5" d="M912.4,510.3c-0.5-0.2-1-0.4-1.6-0.6c-5.5-1.5-11.3,1.3-13.5,6.5l-6.9,15.9l-0.9,2h23.7c0.4,0,0.9,0,1.3,0.2
	l0.8-1.8l3-7C920.9,519.6,918.2,512.8,912.4,510.3z"/>
<circle class="st7" cx="933.7" cy="469.2" r="24.6"/>
<path class="st2" d="M908.7,457.1c11.6,7.1,24.7,11.4,38.3,12.6l-4-4.8c2.9,1.1,6,1.7,9.2,1.8c3.1,0,6.4-1.3,8.2-3.8
	c1.6-2.6,1.8-5.8,0.6-8.6c-1.2-2.8-3.1-5.2-5.6-7c-8.7-6.9-20.3-9-30.8-5.5c-3.6,1.1-6.8,3.1-9.2,5.9c-2.3,2.9-6.8,5.4-5.6,8.9
	L908.7,457.1z"/>
<path class="st2" d="M937.9,437.3c-7.7-7.9-17.1-13.9-27.5-17.8c-6.6-2.5-13.9-4-20.8-2.6s-13.5,6.2-15.4,13
	c-1.6,5.6,0.1,11.6,2.5,16.8s5.7,10.1,7.7,15.5c6.7,18.4-2.7,38.8-21.1,45.5c-4.7,1.7-9.6,2.4-14.5,2.1c6.8,0.9,13.1,4.1,19.8,5.8
	s14.5,1.6,19.5-3.2c5.2-5.1,5.3-13.3,5.1-20.5c-0.4-10.8-0.8-21.6-1.1-32.4c-0.2-5.5-0.4-11.2,1.6-16.4s6.7-9.7,12.2-9.6
	c4.2,0,7.9,2.6,11.2,5.1s6.9,5.2,11.1,5.5s8.9-2.7,8.6-6.9L937.9,437.3z"/>
<path class="st7" d="M958,539.5l-14,0.4l-1,9.8l-0.2,2.3l-22,9.9l-2,0.9v17.5l2-0.6l6.3-1.8h0L955,570l0.3-0.1
	c4.6-1.3,7.8-5.5,7.9-10.3l0.1-11.6l0.1-8.6L958,539.5z"/>
<path class="st5" d="M962.6,520c-0.4-6.3-5.9-11.2-12.2-10.8c-6.3,0.4-11.2,5.8-10.8,12.2l1.5,25c0.1,1.3,0.8,2.6,1.8,3.3
	c0.8,0.6,1.9,0.9,2.9,0.9l10.7-0.7l3.3-0.2c1.2-0.1,2.3-0.6,3.1-1.5c0.1-0.1,0.2-0.2,0.2-0.3c0.6-0.9,0.9-1.9,0.9-3L962.6,520z"/>
<path class="st4" d="M922.1,587.1h-1.3V587c-0.7,0.1-1.3,0.2-2,0.3v1.8h9.2C926.1,588.4,924.1,587.8,922.1,587.1z M922.1,587.1h-1.3
	V587c-0.7,0.1-1.3,0.2-2,0.3v1.8h9.2C926.1,588.4,924.1,587.8,922.1,587.1z M931.3,587.1h-10.5v-47.5c0-3.3-2.2-6.3-5.4-7.2
	c-0.7-0.2-1.4-0.3-2.1-0.3h-89c-4.1,0-7.5,3.4-7.5,7.5v49c0,4.1,3.4,7.5,7.5,7.5h107c2.3,0,4.2-1.7,4.5-4c0-0.2,0-0.3,0-0.5
	C935.8,589.2,933.8,587.1,931.3,587.1z M933.8,591.6c0,1.4-1.1,2.5-2.5,2.5h-107c-3,0-5.5-2.5-5.5-5.5v-49c0-3,2.5-5.5,5.5-5.5h89
	c0.4,0,0.9,0,1.3,0.2c2.5,0.6,4.2,2.8,4.2,5.3v49.5h12.5c1.3,0,2.3,0.9,2.5,2.2C933.8,591.4,933.8,591.5,933.8,591.6z M922.1,587.1
	h-1.3V587c-0.7,0.1-1.3,0.2-2,0.3v1.8h9.2C926.1,588.4,924.1,587.8,922.1,587.1z"/>
<circle class="st5" cx="868.8" cy="564.1" r="6"/>
</svg>
