<?xml version="1.0" encoding="utf-8"?>
<!-- Generator: Adobe Illustrator 23.0.2, SVG Export Plug-In . SVG Version: 6.00 Build 0)  -->
<svg version="1.1" xmlns="http://www.w3.org/2000/svg" xmlns:xlink="http://www.w3.org/1999/xlink" x="0px" y="0px"
	 viewBox="0 0 4500 2500" style="enable-background:new 0 0 4500 2500;" xml:space="preserve">
<style type="text/css">
	.st0{fill:#D9E9FE;}
	.st1{fill:#5F8AD4;}
	.st2{fill:#2E3552;}
	.st3{fill:#2C3A64;}
	.st4{fill:#35488B;}
	.st5{fill:#A16D3C;}
	.st6{fill:#935C2F;}
	.st7{fill:#F2564B;}
	.st8{fill:#FB7369;}
	.st9{fill:#FF5549;}
	.st10{fill:#FF9591;}
	.st11{fill:#C7E1FF;}
	.st12{fill:#D6716B;}
	.st13{opacity:0.1;fill:#35488B;}
	.st14{opacity:0.3;fill:#7DABBD;}
	.st15{fill:#FFFFFF;}
	.st16{fill:#2E49D3;}
	.st17{clip-path:url(#SVGID_2_);}
	.st18{fill:#F4AC75;}
	.st19{fill:#E9F2FF;}
	.st20{opacity:0.2;fill:#B2CBFD;}
	.st21{fill:#C97C47;}
	.st22{fill:#B2CBFD;}
	.st23{opacity:0.5;fill:#B2CBFD;}
	.st24{fill:#7A97F3;}
	.st25{fill:#FF7469;}
	.st26{opacity:0.4;}
	.st27{fill:#EAF1F8;}
</style>
<g id="Layer_1">
</g>
<g id="Слой_2">
	<g>
		<g>
			<path class="st0" d="M3720.92,2076.59c0,0,268.84,49.37,354.42-137.41c111.03-242.33-117.08-426.07-292.03-391.83
				c-381.21,74.59-289.42-748.34-901.22-580.39c-172.03,47.23-636.83-233.32-766.46,216.51
				c-30.83,106.97-140.04,118.75-298.59,186.62c-310.29,132.83-168.41,708.74,53.3,711S3720.92,2076.59,3720.92,2076.59z"/>
			<path class="st1" d="M2931.39,1602.22c0,0,74.22-300.27,165.56-262.89c91.34,37.38-148.43,337.11-148.43,337.11
				s137.02-145.58,219.8-77.07c82.78,68.51-122.74,294.01-22.84,339.69c99.91,45.67,168.42-24.18,239.78,29.3
				c71.36,53.48,54.3,109.23,54.3,109.23s-557.46,1.21-557.46,0C2882.1,2076.38,2931.39,1602.22,2931.39,1602.22z"/>
			<path class="st1" d="M2017.95,2076.38c0,0-88.79-91.93-19.57-145.51c69.22-53.58,151.04,83.42,185.3,51.07
				c34.25-32.35-182.67-192.18-117.97-266.39c64.7-74.21,142.71,28.54,146.52,49.47c3.81,20.93,0,314.06,0,314.06L2017.95,2076.38z"
				/>
			<path class="st2" d="M4135.06,2081.78H1678.85c-0.05,0-0.09-0.04-0.09-0.09v-5.22c0-0.05,0.04-0.09,0.09-0.09h2456.21
				c0.05,0,0.09,0.04,0.09,0.09v5.22C4135.15,2081.74,4135.11,2081.78,4135.06,2081.78z"/>
			<g id="man_7_">
				<g>
					<path class="st3" d="M3859.09,1983.86c0,0,19.61,18.17,15.78,31.09c-3.83,12.91-21.52,21.52-23.92,37.31
						c-2.39,15.78-11.96,24.39-20.57,24.39c-8.61,0-41.04,0-41.04,0s-6.34-11.11,8.97-14.46c15.31-3.35,21.08-21.89,20.12-39.11
						c-0.96-17.22,1.44-40.18,1.44-40.18l32.52-7.65L3859.09,1983.86z"/>
					<path class="st3" d="M3614.68,2075.98c-0.31,0.16-0.74,0.3-1.29,0.44H3503.6c0.96-3.89,4.48-11.27,17.33-13.36
						c17.15-2.78,46.85-12.74,53.48-34.67c0.21-0.71,0.4-1.43,0.57-2.16c5.27-23.44,43.53,7.18,43.53,7.18s0.12,0.93,0.28,2.52
						C3619.67,2044.53,3621.94,2072.35,3614.68,2075.98z"/>
					<path class="st4" d="M3525.49,1449.12c0,0,5.81,72.51,12.64,159.66c9.28,118.39,20.45,263.82,21.55,291.37
						c1.91,47.84,9.57,124.36,9.57,124.36s18.17,18.18,54.53,10.52c0,0,32.4-109.24,41.66-224.82c0.14-1.89,0.29-3.8,0.43-5.71
						c8.61-117.66,22-365.43,22-365.43L3525.49,1449.12z"/>
					<path class="st3" d="M3525.49,1449.12c0,0,5.81,72.51,12.64,159.66l127.3,201.43c0.14-1.89,0.29-3.8,0.43-5.71
						c8.61-117.66,22-365.43,22-365.43L3525.49,1449.12z"/>
					<path class="st4" d="M3552.03,1457.73c0,0,104.75,262.59,173.62,385.99c68.88,123.4,90.4,157.84,90.4,157.84
						s39.46-15.78,43.05-26.55c0,0-26.34-238.23-72.46-296.31c-26.06-32.81-56.68-131.29-58.11-165.73
						c-1.44-34.44-9.33-102.6-9.33-102.6L3552.03,1457.73z"/>
				</g>
				<path class="st5" d="M3446.09,1385.23l-5.99,11.93c0,0-30.45,4.25-22.07,35.99c0,0,4.52,13.06,12.91,8.93
					c8.4-4.13,4.26-3.78,16.29-9.34c12.03-5.56,19-16.24,16.3-26.04l1.93-10.39L3446.09,1385.23z"/>
				<path class="st6" d="M3605.75,1052.4c-4.66-27.5-4.8-43.8-4.8-43.8l53.15-42.83c-1.97,58.89,35.76,87.21,35.76,87.21
					s-70.82,34.86-111.76,21.95C3578.1,1074.93,3588.18,1062.05,3605.75,1052.4z"/>
				<path class="st5" d="M3588.43,1007.63c0,0,67.61,11.23,73.96-30.98c6.35-42.21,19.35-69.19-23.55-78.15
					c-42.9-8.96-53.73,5.89-59.27,19.46C3574.02,931.54,3571,1003.62,3588.43,1007.63z"/>
				<path class="st3" d="M3661.94,979.56c0,0-1.36-56.55-62.97-65.62c-42.2-6.22-16.64-41.48-11.82-47.06c0,0,32.26,6.16,65.27,13.4
					C3721.72,895.49,3669.26,971.15,3661.94,979.56z"/>
				<path class="st7" d="M3453.19,1401.82c-9.04-9.27-15.75-21.35-15.75-21.35s76.82-95.44,83.06-105.34s52.9-168.65,52.9-168.65
					l117.98-23.9c0,0-98.48,203.17-114.79,227.94c-26.96,40.93-107.61,101.84-107.61,101.84S3460.29,1409.11,3453.19,1401.82z"/>
				<path class="st8" d="M3520.97,1455.16c1.23,1.02,2.66,1.64,4.3,1.64c15.37-0.21,60.19,8.33,98.12,4.43
					c31.97-3.07,60.27-12.54,90.67-26.16c4.04-1.81,13.32-6.77,13.12-11.28c-0.14-4.94-0.63-12.1-1.24-21.12
					c-2.15-31.37-5.9-85.32-2.25-147.57c0.66-11.59,1-23.09,1.04-34.41c0.31-84.36-16.42-158.57-50.03-183.68
					c-2.87-2.06-20.5,6.56-36.69,14.55c-14.96,7.38-29.93,8.2-44.07,5.34l-14.14,12.5c-17.22,15.99-36.08,37.72-44.28,70.72
					c-6.97,28.08-11.07,78.71-13.32,131.19c-1.02,23.78-1.85,47.76-2.06,70.52v0.82c-0.2,2.25-0.2,4.72-0.2,6.97
					C3519.12,1408.01,3519.95,1454.33,3520.97,1455.16z"/>
				<path class="st7" d="M3725.93,1402.66c-2.15-31.37-5.9-85.32-2.25-147.57c0.66-11.59,1-23.09,1.04-34.41
					c-14-33.97-25.45-58.6-25.45-58.6h-35.29C3663.99,1162.08,3638.11,1338.83,3725.93,1402.66z"/>
				<g>
					<path class="st5" d="M3794.6,1413.65l6.7,11.55c0,0-13.13,27.8,18.01,38.18c0,0,13.4,3.38,14.54-5.91
						c1.15-9.29-0.83-5.63,1.11-18.75c1.94-13.11-3.18-24.79-12.85-27.91l-7.63-7.31L3794.6,1413.65z"/>
					<path class="st8" d="M3812.36,1416.81c-12.71,2.48-26.49,1.47-26.49,1.47s-37.73-116.56-42.59-127.21
						c-4.86-10.65-112.08-136.67-112.08-136.67l44.67-111.78c0,0,115.97,193.72,127.75,220.94
						c19.46,44.98,26.21,145.83,26.21,145.83S3822.34,1414.86,3812.36,1416.81z"/>
				</g>
			</g>
			<path class="st9" d="M2907.75,2076.38h-728.5c-7.13,0-12.96-5.83-12.96-12.96V657.87c0-7.13,5.83-12.95,12.96-12.95h728.5
				c7.13,0,12.96,5.83,12.96,12.95v1405.55C2920.7,2070.55,2914.87,2076.38,2907.75,2076.38z"/>
			<path class="st8" d="M2980.87,2076.38h-728.5c-7.13,0-12.95-5.83-12.95-12.96V657.87c0-7.13,5.83-12.95,12.95-12.95h728.5
				c7.13,0,12.95,5.83,12.95,12.95v1405.55C2993.83,2070.55,2988,2076.38,2980.87,2076.38z"/>
			<rect x="2266.4" y="759.36" class="st0" width="698.86" height="1159.94"/>
			<g>
				<path class="st10" d="M2727.18,699.1h-196.11c-4.2,0-7.63,3.43-7.63,7.63c0,4.2,3.43,7.63,7.63,7.63h196.11
					c4.2,0,7.63-3.43,7.63-7.63C2734.81,702.53,2731.38,699.1,2727.18,699.1z"/>
				<path class="st10" d="M2496.24,699.1c-4.2,0-7.63,3.43-7.63,7.63c0,4.2,3.43,7.63,7.63,7.63c4.2,0,7.63-3.43,7.63-7.63
					C2503.87,702.53,2500.44,699.1,2496.24,699.1z"/>
			</g>
			
				<ellipse transform="matrix(0.7071 -0.7071 0.7071 0.7071 -653.3038 2437.6287)" class="st10" cx="2615.83" cy="2007.42" rx="39.07" ry="39.07"/>
			<g>
				<path class="st11" d="M3435.35,2075.65L3435.35,2075.65c-60.85,6.61-116.04-37.76-122.65-98.61l-108.11-995.09
					c-6.61-60.85,37.77-116.04,98.61-122.65h0c60.85-6.61,116.04,37.76,122.65,98.61L3533.96,1953
					C3540.57,2013.84,3496.2,2069.04,3435.35,2075.65z"/>
				<path class="st11" d="M3336.16,911.85c1.32,12.24-7.6,23.34-19.84,24.68c-12.24,1.33-23.33-7.6-24.67-19.84l-10.11-93.07
					l-16.03-147.5c-1.33-12.24,7.6-23.34,19.83-24.67l0.15-0.02c12.18-1.24,23.2,7.66,24.52,19.85l16.06,147.81L3336.16,911.85z"/>
				<path class="st12" d="M3326.4,819.06l-44.54,4.53l-16.03-147.5c-1.33-12.24,7.6-23.34,19.83-24.67l0.15-0.02
					c12.18-1.24,23.2,7.66,24.52,19.85L3326.4,819.06z"/>
				
					<rect x="3288.35" y="1709.23" transform="matrix(0.9949 -0.1011 0.1011 0.9949 -161.5703 352.8145)" class="st12" width="223.42" height="122.45"/>
				<g>
					
						<rect x="3298.69" y="1006.98" transform="matrix(0.9949 -0.1011 0.1011 0.9949 -84.92 341.0698)" class="st4" width="47.86" height="2.79"/>
					
						<rect x="3300.43" y="1024.1" transform="matrix(0.9949 -0.1011 0.1011 0.9949 -86.6431 341.3412)" class="st4" width="47.86" height="2.79"/>
					
						<rect x="3302.17" y="1041.22" transform="matrix(0.9949 -0.1011 0.1011 0.9949 -88.3644 341.604)" class="st4" width="47.86" height="2.79"/>
					
						<rect x="3303.91" y="1058.33" transform="matrix(0.9949 -0.1011 0.1011 0.9949 -90.0815 341.8463)" class="st4" width="47.86" height="2.79"/>
					
						<rect x="3305.65" y="1075.45" transform="matrix(0.9949 -0.1011 0.1011 0.9949 -91.809 342.1382)" class="st4" width="47.86" height="2.79"/>
				</g>
				
					<rect x="3266.56" y="1093.24" transform="matrix(0.9949 -0.1011 0.1011 0.9949 -93.7447 342.425)" class="st4" width="129.95" height="5.74"/>
				<g>
					
						<rect x="3309.49" y="1113.31" transform="matrix(0.9949 -0.1011 0.1011 0.9949 -95.6171 342.7211)" class="st4" width="47.86" height="2.79"/>
					
						<rect x="3311.23" y="1130.43" transform="matrix(0.9949 -0.1011 0.1011 0.9949 -97.3304 342.949)" class="st4" width="47.86" height="2.79"/>
					
						<rect x="3312.97" y="1147.54" transform="matrix(0.9949 -0.1011 0.1011 0.9949 -99.0602 343.2482)" class="st4" width="47.86" height="2.79"/>
					
						<rect x="3314.71" y="1164.66" transform="matrix(0.9949 -0.1011 0.1011 0.9949 -100.7716 343.4695)" class="st4" width="47.86" height="2.79"/>
					
						<rect x="3316.45" y="1181.78" transform="matrix(0.9949 -0.1011 0.1011 0.9949 -102.4998 343.7609)" class="st4" width="47.86" height="2.79"/>
				</g>
				<g>
					
						<rect x="3321.65" y="1232.98" transform="matrix(0.9949 -0.1011 0.1011 0.9949 -107.6519 344.5566)" class="st4" width="47.86" height="2.79"/>
					
						<rect x="3323.39" y="1250.1" transform="matrix(0.9949 -0.1011 0.1011 0.9949 -109.364 344.7842)" class="st4" width="47.86" height="2.79"/>
					
						<rect x="3325.13" y="1267.22" transform="matrix(0.9949 -0.1011 0.1011 0.9949 -111.0952 345.0844)" class="st4" width="47.86" height="2.79"/>
					
						<rect x="3326.87" y="1284.33" transform="matrix(0.9949 -0.1011 0.1011 0.9949 -112.7989 345.2824)" class="st4" width="47.86" height="2.79"/>
					
						<rect x="3328.61" y="1301.45" transform="matrix(0.9949 -0.1011 0.1011 0.9949 -114.538 345.6108)" class="st4" width="47.86" height="2.79"/>
				</g>
				
					<rect x="3289.53" y="1319.24" transform="matrix(0.9949 -0.1011 0.1011 0.9949 -116.4713 345.8914)" class="st4" width="129.95" height="5.74"/>
				<g>
					
						<rect x="3333.9" y="1353.5" transform="matrix(0.9949 -0.1011 0.1011 0.9949 -119.7751 346.4194)" class="st4" width="47.86" height="2.79"/>
					
						<rect x="3335.64" y="1370.61" transform="matrix(0.9949 -0.1011 0.1011 0.9949 -121.4966 346.6829)" class="st4" width="47.86" height="2.79"/>
					
						<rect x="3337.38" y="1387.73" transform="matrix(0.9949 -0.1011 0.1011 0.9949 -123.2162 346.9399)" class="st4" width="47.86" height="2.79"/>
					
						<rect x="3339.12" y="1404.85" transform="matrix(0.9949 -0.1011 0.1011 0.9949 -124.9398 347.2101)" class="st4" width="47.86" height="2.79"/>
					
						<rect x="3340.86" y="1421.96" transform="matrix(0.9949 -0.1011 0.1011 0.9949 -126.6613 347.4736)" class="st4" width="47.86" height="2.79"/>
				</g>
				
					<rect x="3301.77" y="1439.75" transform="matrix(0.9949 -0.1011 0.1011 0.9949 -128.6002 347.7736)" class="st4" width="129.95" height="5.74"/>
				<g>
					
						<rect x="3345.99" y="1472.47" transform="matrix(0.9949 -0.1011 0.1011 0.9949 -131.7408 348.2511)" class="st4" width="47.86" height="2.79"/>
					
						<rect x="3347.73" y="1489.58" transform="matrix(0.9949 -0.1011 0.1011 0.9949 -133.4626 348.5154)" class="st4" width="47.86" height="2.79"/>
					
						<rect x="3349.47" y="1506.7" transform="matrix(0.9949 -0.1011 0.1011 0.9949 -135.1839 348.7783)" class="st4" width="47.86" height="2.79"/>
					
						<rect x="3351.21" y="1523.82" transform="matrix(0.9949 -0.1011 0.1011 0.9949 -136.9057 349.0426)" class="st4" width="47.86" height="2.79"/>
					
						<rect x="3352.95" y="1540.93" transform="matrix(0.9949 -0.1011 0.1011 0.9949 -138.6245 349.2979)" class="st4" width="47.86" height="2.79"/>
				</g>
				
					<rect x="3313.86" y="1558.72" transform="matrix(0.9949 -0.1011 0.1011 0.9949 -140.5641 349.6)" class="st4" width="129.95" height="5.74"/>
				<g>
					
						<rect x="3358.38" y="1594.37" transform="matrix(0.9949 -0.1011 0.1011 0.9949 -144.0014 350.1281)" class="st4" width="47.86" height="2.79"/>
					
						<rect x="3360.12" y="1611.48" transform="matrix(0.9949 -0.1011 0.1011 0.9949 -145.7233 350.3924)" class="st4" width="47.86" height="2.79"/>
					
						<rect x="3361.85" y="1628.6" transform="matrix(0.9949 -0.1011 0.1011 0.9949 -147.4419 350.6478)" class="st4" width="47.86" height="2.79"/>
					
						<rect x="3363.59" y="1645.72" transform="matrix(0.9949 -0.1011 0.1011 0.9949 -149.1661 350.9187)" class="st4" width="47.86" height="2.79"/>
					
						<rect x="3365.33" y="1662.83" transform="matrix(0.9949 -0.1011 0.1011 0.9949 -150.8877 351.1823)" class="st4" width="47.86" height="2.79"/>
				</g>
				
					<rect x="3326.25" y="1680.62" transform="matrix(0.9949 -0.1011 0.1011 0.9949 -152.8267 351.4824)" class="st4" width="129.95" height="5.74"/>
				<path class="st13" d="M3431.12,2076.08L3431.12,2076.08c-45.85,4.66-87.17-29.04-91.83-74.88l-106.75-1050.5
					c-4.66-45.85,29.04-87.17,74.88-91.82l0,0c45.84-4.66,87.17,29.04,91.82,74.88L3506,1984.25
					C3510.66,2030.1,3476.96,2071.42,3431.12,2076.08z"/>
				<path class="st12" d="M3382.38,1198.37c-0.33-3.23,2.03-6.12,5.26-6.45c3.23-0.33,6.12,2.03,6.45,5.26
					c0.33,3.23-2.03,6.12-5.26,6.45C3385.59,1203.95,3382.7,1201.6,3382.38,1198.37z"/>
				
					<rect x="3283.68" y="1201.43" transform="matrix(0.9949 -0.1011 0.1011 0.9949 -104.7191 342.1982)" class="st12" width="80.49" height="5.74"/>
				<path class="st4" d="M3319.69,917.13l84.65,833c0.35,3.45-2.19,6.56-5.64,6.91c-3.46,0.35-6.57-2.19-6.92-5.64l-84.65-833
					c-0.35-3.46,2.19-6.56,5.65-6.91c1.72-0.18,3.37,0.37,4.62,1.39C3318.65,913.9,3319.52,915.4,3319.69,917.13z"/>
				<path class="st12" d="M3319.69,917.13l27,265.7l-12.56,1.28l-27-265.7c-0.35-3.46,2.19-6.56,5.65-6.91
					c1.72-0.18,3.37,0.37,4.62,1.39C3318.65,913.9,3319.52,915.4,3319.69,917.13z"/>
			</g>
			<path class="st14" d="M2267.19,1526.25c0,0,46.87-112.92,138.64-99.54c91.78,13.37,253.75,9.51,360.88-56.19
				c107.13-65.7,199.33-34.78,199.33-34.78v583.57h-698.86V1526.25z"/>
			<g>
				<path class="st15" d="M1797.91,1538c0,0,249.27,1.28,416.01,77.16c0,0-24.95,400.04-299.77,461.21
					C1914.15,2076.38,1680.82,1937.71,1797.91,1538z"/>
				<path class="st16" d="M1821.06,1568.09c0,0,226.54,12.38,356.44,65.68c0,0-13.45,326.16-253.58,403.41
					C1923.93,2037.17,1734.26,1943.58,1821.06,1568.09z"/>
				<polygon class="st15" points="2070.47,1755.84 2004.16,1743.62 2016.08,1678.95 1955.34,1667.75 1943.42,1732.43 
					1880.38,1720.82 1869.19,1781.55 1932.23,1793.17 1920.31,1857.84 1981.05,1869.04 1992.97,1804.36 2059.28,1816.58 				"/>
			</g>
			<g>
				<defs>
					<rect id="SVGID_1_" x="2267.19" y="759.36" width="698.86" height="1159.94"/>
				</defs>
				<clipPath id="SVGID_2_">
					<use xlink:href="#SVGID_1_"  style="overflow:visible;"/>
				</clipPath>
				<g class="st17">
					<path class="st18" d="M2555.71,1261.43c-39.03,12.31-106.56-20.93-106.56-20.93s30.45-22.85,33.86-70.25
						c0.06-0.65,0.1-1.3,0.12-1.96c0.2-3.51,0.25-7.17,0.13-10.95l10.68,8.61l39.98,32.24c0,0-2.05,15.89-2.87,42.38
						c6.34,3.47,11.41,7.31,15.26,10.73C2552.66,1256.92,2555.71,1261.43,2555.71,1261.43z"/>
					<path class="st18" d="M2405.84,1235.45c0,0,103.16-16.27,171.12,28.72c0,0,46.17,301.85,5.97,330.41
						c-40.21,28.56-177.09,0-177.09,0V1235.45z"/>
					<path class="st19" d="M2543.5,1919.3h-186.42c0,0,21.66-318.08,27.85-395.52c5.03-62.81,15.65-213.39,19.49-268.06
						c0.89-12.74,1.42-20.27,1.42-20.27l44.5-7.58l76.44,99.07c0,0,12.09,264.19,11.65,305.83c-0.43,41.64,4.83,203.88,5.07,231.17
						C2543.74,1891.2,2543.5,1919.3,2543.5,1919.3z"/>
					<path class="st19" d="M2526.78,1326.93l16.71,592.36h87.83c0,0-4.06-389.6-4.36-425.39s9.54-189.99-17.86-213.92
						c-22.91-20-78.04-39.43-78.04-39.43L2526.78,1326.93z"/>
					<path class="st19" d="M2531.62,1226.88c0,0,25.04,17.25,24.1,23.44s-4.38,15.99-4.38,15.99l-15.32-3.11l12.92,9.09
						c0,0-14.66,42.74-22.17,54.63L2531.62,1226.88z"/>
					<path class="st20" d="M2393.92,1403.33c10.96-67.38,137.63,32.19,127.1,120.56c-19.48,163.49-102.44,345.78-163.94,395.41
						L2393.92,1403.33z"/>
					<path class="st21" d="M2483.01,1170.25c-0.17-1.21-0.56-1.81-0.56-1.81l0.69-0.15l10.81-2.35l39.98,32.24
						c0,0-1.73,15.01-2.97,42.45C2530.86,1240.49,2489.75,1217.74,2483.01,1170.25z"/>
					<path class="st18" d="M2550.22,1207.97c0,0-69.61-1.95-67.73-45.28c1.88-43.33-5.84-72.77,38.69-73.36
						c44.53-0.59,52.44,16.32,55.33,30.94C2579.39,1134.89,2568.37,1207.36,2550.22,1207.97z"/>
					<path class="st3" d="M2482.45,1168.44c0,0,9.06,2.39,16.24-7.18s19.14-46.43,34.94-48.82c15.79-2.39,36.62,9.33,43.33,2.63
						c9.79-9.77,22.41-25.75,22.41-25.75s-78.34-55.86-109.62-30.01C2458.49,1085.16,2447.54,1122.97,2482.45,1168.44z"/>
					<g>
						<path class="st3" d="M2576.47,1323.19c-1.47-26.84-16.12-70.56-16.24-70.98l4.18,1.86c0.53,1.75,12.17,41.66,13.67,69.07
							L2576.47,1323.19z"/>
					</g>
					<g>
						<path class="st3" d="M2475.08,1403.33c-1.47-1.53-37.3-35.99-29.66-60.14c2.98-9.41,8.46-13.11,14.28-15.85
							c5.43-1.97,18.09-4.04,24.63,0.08c11.94,7.51,17.96,28.27,19.73,62.8l-1.46,0.07c-2.1-40.95-12.66-55.78-20.55-59.12
							c-9.92-4.2-27.31-2.46-32.79,13.4c-3.77,10.93,3.63,26.21,10.49,36.69c7.62,11.65,15.93,21.98,16.01,22.07H2475.08z"/>
					</g>
					<path class="st8" d="M2478.8,1407.06L2478.8,1407.06c-1.37,1.37-3.62,1.37-4.99,0l-2.45-2.45c-1.37-1.37-1.37-3.62,0-4.99l0,0
						c1.37-1.37,3.62-1.37,4.99,0l2.45,2.46C2480.18,1403.44,2480.18,1405.68,2478.8,1407.06z"/>
					<path class="st8" d="M2503.46,1396.81L2503.46,1396.81c-1.94,0-3.53-1.59-3.53-3.53v-3.47c0-1.94,1.59-3.53,3.53-3.53l0,0
						c1.94,0,3.53,1.59,3.53,3.53v3.47C2506.99,1395.22,2505.4,1396.81,2503.46,1396.81z"/>
					<path class="st3" d="M2567.39,1323.19c0-5.29,4.29-9.57,9.57-9.57c5.29,0,9.57,4.29,9.57,9.57c0,5.29-4.29,9.57-9.57,9.57
						C2571.67,1332.77,2567.39,1328.48,2567.39,1323.19z"/>
					<path class="st12" d="M2572.45,1323.19c0-2.69,2.18-4.87,4.87-4.87c2.69,0,4.87,2.18,4.87,4.87c0,2.69-2.18,4.87-4.87,4.87
						C2574.63,1328.06,2572.45,1325.88,2572.45,1323.19z"/>
					<g>
						<path class="st22" d="M2533.58,1919.3c-0.06-0.6-6.09-60.26-4.35-112.12c0.73-21.91,0.11-47.67-0.49-72.58
							c-0.86-35.54-2.77-69.76,0.1-92.07c4.91-38.18,3.93-211.76,1.92-230.57c-1.97-18.34-0.09-38.46,1.73-44.52
							c1.85-6.18-6.09-40.03-6.18-40.37l0.93-0.24c0.37,1.42,8.94,34.75,7,41.19c-1.8,6-4.49,25.64-2.54,43.84
							c2.02,18.83,5.88,192.37,0.96,230.59c-2.86,22.24-3.83,56.63-2.98,92.13c0.6,24.93,1.22,50.7,0.49,72.64
							c-1.74,51.8,7.06,111.5,7.12,112.09H2533.58z"/>
					</g>
					<path class="st19" d="M2687.94,1442.81c0,0,23.58,40.6-1.15,51.29c-24.73,10.68-27.4-0.57-27.4-0.57L2687.94,1442.81z"/>
					<path class="st19" d="M2490.31,1467.82c0,0,3.75,7.65,3.33,14.52c-0.44,7.18-3.81,18.03-3.81,18.03s-145.62,31-173.91,5.08
						c-30.38-27.82,25.99-236.83,50.11-257.28c10.4-8.82,32.32-14.2,52.55-17.41c11.15-1.78,21.79-2.9,29.7-3.58
						c8.16-0.71,13.44-0.94,13.44-0.94l-3.28,12.14l-12.77,47.19l-14.88,55.04c0,0-44.51,91.62-45.95,100.23
						C2383.41,1449.46,2490.31,1467.82,2490.31,1467.82z"/>
					<path class="st20" d="M2510.58,1312.29c0,0-37.13-16.17-63.82-30.9c-17.42-9.62-26.34-27.63-28.17-50.64
						c11.15-1.78,21.79-2.9,29.7-3.58c1.28,0.41,2.05,0.69,2.05,0.69l8.11,10.51L2510.58,1312.29z"/>
					<path class="st19" d="M2526.78,1326.93l-57.84-110.3c0,0-21.57,4.37-28.82,11.16c0,0,3.68,33.17,6.55,40.51
						c0,0,11.17-1.28,12.76-0.32c0,0-5.42,8.3-7.02,9.25C2452.42,1277.25,2502.7,1300.68,2526.78,1326.93z"/>
					<g>
						<path class="st3" d="M2459.86,1331.17c-3.95-8.73-38.78-83.12-29.92-102.05l3.41-0.42c-6.72,14.34,17.43,79,27.91,102.17
							L2459.86,1331.17z"/>
					</g>
					<path class="st23" d="M2536.62,1395.57c0-2.56,2.08-4.64,4.64-4.64s4.64,2.08,4.64,4.64s-2.08,4.64-4.64,4.64
						S2536.62,1398.13,2536.62,1395.57z"/>
					<path class="st23" d="M2536.62,1655.68c0-2.56,2.08-4.64,4.64-4.64s4.64,2.08,4.64,4.64s-2.08,4.64-4.64,4.64
						S2536.62,1658.24,2536.62,1655.68z"/>
					<path class="st23" d="M2538.96,1536.8c0-2.56,2.08-4.64,4.64-4.64c2.56,0,4.64,2.08,4.64,4.64c0,2.56-2.08,4.64-4.64,4.64
						C2541.04,1541.45,2538.96,1539.37,2538.96,1536.8z"/>
					<path class="st23" d="M2538.96,1768.7c0-2.56,2.08-4.64,4.64-4.64c2.56,0,4.64,2.08,4.64,4.64s-2.08,4.64-4.64,4.64
						C2541.04,1773.34,2538.96,1771.26,2538.96,1768.7z"/>
					<path class="st24" d="M2487.6,1252.21c0,0,16.09,7.92,42.11,3.02l-2.92,71.71L2487.6,1252.21z"/>
					<g>
						<polygon class="st12" points="2589.27,1337.04 2739.88,1350.54 2647.98,1513.78 2506.22,1505.64 						"/>
						<path class="st22" d="M2603.15,1336.29c0,0,0.07-23.07,12.82-21.48s16.6,24.78,16.6,24.78L2603.15,1336.29z"/>
						<polygon class="st8" points="2738.9,1348.48 2588.29,1334.98 2505.24,1503.58 2506.26,1505.68 2589.31,1337.08 
							2739.91,1350.57 						"/>
						<path class="st19" d="M2615.97,1314.81c0,0,21.28,10.45,13.76,43.93c-7.52,33.48-16.89,51.84-11.43,71.64l101.45,9.31
							c0,0-11.02-26.33,1.22-52.97c12.25-26.64,3.55-57.09-7.7-59.75L2615.97,1314.81z"/>
					</g>
					<path class="st18" d="M2666.63,1483.39c0,0-15.42-18.53-12.23-31.93c3.19-13.4,14.68-16.5,21.7-11.76s17.23,15.59,15.32,23.89
						C2689.5,1471.88,2674.4,1487.25,2666.63,1483.39z"/>
					<path class="st18" d="M2482.61,1472.37c0,0,26.13-11.49,38.09-8.14s28.11,5.74,29.37,10.05c1.26,4.31-8.61,20.26-23.3,21.06
						c-14.69,0.8-40.54,7.66-46.76,0C2473.8,1487.68,2482.61,1472.37,2482.61,1472.37z"/>
				</g>
			</g>
			<g>
				<path class="st25" d="M3054.71,1041.09h-362c-8.47,0-15.4,6.93-15.4,15.4v156.61c0,8.47,6.93,15.4,15.4,15.4h20.54v41.08
					l64.03-41.08h277.43c8.47,0,15.41-6.93,15.41-15.4V1056.5C3070.12,1048.02,3063.18,1041.09,3054.71,1041.09z"/>
				<g class="st26">
					<path class="st10" d="M3018.77,1103.99h-290.11c-5.65,0-10.27-4.62-10.27-10.27l0,0c0-5.65,4.62-10.27,10.27-10.27h290.11
						c5.65,0,10.27,4.62,10.27,10.27l0,0C3029.04,1099.37,3024.42,1103.99,3018.77,1103.99z"/>
					<path class="st10" d="M3018.77,1141.22h-290.11c-5.65,0-10.27-4.62-10.27-10.27l0,0c0-5.65,4.62-10.27,10.27-10.27h290.11
						c5.65,0,10.27,4.62,10.27,10.27l0,0C3029.04,1136.6,3024.42,1141.22,3018.77,1141.22z"/>
					<path class="st10" d="M3018.77,1178.45h-290.11c-5.65,0-10.27-4.62-10.27-10.27l0,0c0-5.65,4.62-10.27,10.27-10.27h290.11
						c5.65,0,10.27,4.62,10.27,10.27l0,0C3029.04,1173.83,3024.42,1178.45,3018.77,1178.45z"/>
				</g>
			</g>
			<g>
				<path class="st25" d="M4122.34,782.07h-362c-8.47,0-15.4,6.93-15.4,15.4v156.61c0,8.47,6.93,15.4,15.4,15.4h20.54v41.08
					l64.03-41.08h277.43c8.47,0,15.4-6.93,15.4-15.4V797.47C4137.75,789,4130.82,782.07,4122.34,782.07z"/>
				<g class="st26">
					<path class="st10" d="M4086.4,844.97h-290.12c-5.65,0-10.27-4.62-10.27-10.27l0,0c0-5.65,4.62-10.27,10.27-10.27h290.12
						c5.65,0,10.27,4.62,10.27,10.27l0,0C4096.67,840.35,4092.05,844.97,4086.4,844.97z"/>
					<path class="st10" d="M4086.4,882.2h-290.12c-5.65,0-10.27-4.62-10.27-10.27l0,0c0-5.65,4.62-10.27,10.27-10.27h290.12
						c5.65,0,10.27,4.62,10.27,10.27l0,0C4096.67,877.57,4092.05,882.2,4086.4,882.2z"/>
					<path class="st10" d="M4086.4,919.42h-290.12c-5.65,0-10.27-4.62-10.27-10.27l0,0c0-5.65,4.62-10.27,10.27-10.27h290.12
						c5.65,0,10.27,4.62,10.27,10.27l0,0C4096.67,914.8,4092.05,919.42,4086.4,919.42z"/>
				</g>
			</g>
			<path class="st27" d="M2595.73,960.8h-274.85c-1.41,0-2.56-1.15-2.56-2.56v-144.2c0-1.41,1.15-2.56,2.56-2.56h274.85
				c1.41,0,2.56,1.15,2.56,2.56v144.2C2598.3,959.65,2597.14,960.8,2595.73,960.8z"/>
			<path class="st27" d="M2918.14,960.8h-277.6c-1.41,0-2.56-1.15-2.56-2.56v-144.2c0-1.41,1.15-2.56,2.56-2.56h277.6
				c1.41,0,2.56,1.15,2.56,2.56v144.19C2920.7,959.65,2919.55,960.8,2918.14,960.8z"/>
			<path class="st12" d="M2429.57,845.94c-20.2-3.44-31.08,17.62-31.08,17.62s-10.88-21.06-31.08-17.62
				c-20.2,3.44-26.03,23.64-20.59,37.82c5.44,14.18,51.67,51.58,51.67,51.58s46.23-37.39,51.67-51.58
				C2455.6,869.59,2449.77,849.38,2429.57,845.94z"/>
			<g>
				<polygon class="st27" points="2409.16,901.33 2411.04,885.5 2394.51,885.5 2394.51,876.67 2385.89,901.24 2385.89,884 
					2377.14,884 2371.53,900.37 2367.32,875.38 2360.95,888.05 2360.1,887.62 2367.78,872.34 2371.85,896.49 2376.46,883.04 
					2386.85,883.04 2386.85,895.62 2395.47,871.05 2395.47,884.55 2412.12,884.55 2410.81,895.53 2421.95,871.7 2421.95,884.15 
					2431.92,884.15 2431.92,890.91 2436.03,881.33 2436.91,881.7 2430.96,895.57 2430.96,885.11 2420.99,885.11 2420.99,876.01 				
					"/>
			</g>
			<g>
				<path class="st22" d="M2569.07,860h-93.53c-2.54,0-4.61-2.07-4.61-4.61l0,0c0-2.53,2.07-4.61,4.61-4.61h93.53
					c2.53,0,4.61,2.07,4.61,4.61l0,0C2573.67,857.93,2571.6,860,2569.07,860z"/>
				<path class="st22" d="M2569.07,879.08h-93.53c-2.54,0-4.61-2.07-4.61-4.61l0,0c0-2.53,2.07-4.61,4.61-4.61h93.53
					c2.53,0,4.61,2.07,4.61,4.61l0,0C2573.67,877.01,2571.6,879.08,2569.07,879.08z"/>
				<path class="st22" d="M2569.07,900.29h-93.53c-2.54,0-4.61-2.07-4.61-4.61l0,0c0-2.53,2.07-4.61,4.61-4.61h93.53
					c2.53,0,4.61,2.07,4.61,4.61l0,0C2573.67,898.22,2571.6,900.29,2569.07,900.29z"/>
				<path class="st22" d="M2569.07,921.5h-93.53c-2.54,0-4.61-2.07-4.61-4.61l0,0c0-2.53,2.07-4.61,4.61-4.61h93.53
					c2.53,0,4.61,2.07,4.61,4.61l0,0C2573.67,919.42,2571.6,921.5,2569.07,921.5z"/>
			</g>
			<g>
				<path class="st22" d="M2864.86,860h-93.53c-2.53,0-4.61-2.07-4.61-4.61l0,0c0-2.53,2.07-4.61,4.61-4.61h93.53
					c2.53,0,4.61,2.07,4.61,4.61l0,0C2869.46,857.93,2867.39,860,2864.86,860z"/>
				<path class="st22" d="M2864.86,879.08h-93.53c-2.53,0-4.61-2.07-4.61-4.61l0,0c0-2.53,2.07-4.61,4.61-4.61h93.53
					c2.53,0,4.61,2.07,4.61,4.61l0,0C2869.46,877.01,2867.39,879.08,2864.86,879.08z"/>
				<path class="st22" d="M2864.86,900.29h-93.53c-2.53,0-4.61-2.07-4.61-4.61l0,0c0-2.53,2.07-4.61,4.61-4.61h93.53
					c2.53,0,4.61,2.07,4.61,4.61l0,0C2869.46,898.22,2867.39,900.29,2864.86,900.29z"/>
				<path class="st22" d="M2864.86,921.5h-93.53c-2.53,0-4.61-2.07-4.61-4.61l0,0c0-2.53,2.07-4.61,4.61-4.61h93.53
					c2.53,0,4.61,2.07,4.61,4.61l0,0C2869.46,919.42,2867.39,921.5,2864.86,921.5z"/>
			</g>
			<g>
				<path class="st27" d="M2901.44,1756.08h-155.11c-4.2,0-7.64,3.44-7.64,7.64c0,4.2,3.44,7.64,7.64,7.64h155.11
					c4.2,0,7.64-3.44,7.64-7.64C2909.08,1759.52,2905.64,1756.08,2901.44,1756.08z"/>
				<path class="st27" d="M2901.44,1787.72h-155.11c-4.2,0-7.64,3.44-7.64,7.64c0,4.2,3.44,7.64,7.64,7.64h155.11
					c4.2,0,7.64-3.44,7.64-7.64C2909.08,1791.16,2905.64,1787.72,2901.44,1787.72z"/>
				<path class="st27" d="M2901.44,1822.89h-155.11c-4.2,0-7.64,3.44-7.64,7.64c0,4.2,3.44,7.64,7.64,7.64h155.11
					c4.2,0,7.64-3.44,7.64-7.64C2909.08,1826.32,2905.64,1822.89,2901.44,1822.89z"/>
				<path class="st27" d="M2901.44,1858.05h-155.11c-4.2,0-7.64,3.44-7.64,7.64s3.44,7.64,7.64,7.64h155.11
					c4.2,0,7.64-3.44,7.64-7.64S2905.64,1858.05,2901.44,1858.05z"/>
				<path class="st27" d="M2901.44,1589.86h-155.11c-4.2,0-7.64,3.44-7.64,7.64l0,0c0,4.2,3.44,7.64,7.64,7.64h155.11
					c4.2,0,7.64-3.44,7.64-7.64l0,0C2909.08,1593.3,2905.64,1589.86,2901.44,1589.86z"/>
				<path class="st27" d="M2901.44,1621.5h-155.11c-4.2,0-7.64,3.44-7.64,7.64l0,0c0,4.2,3.44,7.64,7.64,7.64h155.11
					c4.2,0,7.64-3.44,7.64-7.64l0,0C2909.08,1624.93,2905.64,1621.5,2901.44,1621.5z"/>
				<path class="st27" d="M2901.44,1656.66h-155.11c-4.2,0-7.64,3.44-7.64,7.64l0,0c0,4.2,3.44,7.64,7.64,7.64h155.11
					c4.2,0,7.64-3.44,7.64-7.64l0,0C2909.08,1660.1,2905.64,1656.66,2901.44,1656.66z"/>
				<path class="st27" d="M2901.44,1691.83h-155.11c-4.2,0-7.64,3.44-7.64,7.64l0,0c0,4.2,3.44,7.64,7.64,7.64h155.11
					c4.2,0,7.64-3.44,7.64-7.64l0,0C2909.08,1695.27,2905.64,1691.83,2901.44,1691.83z"/>
			</g>
			<g>
				<path class="st12" d="M2674.66,905.84c-2.16,10.12,0.08,27.47,22.72,34.6c22.65,7.14,39.34-10.61,41.23-28.11
					c1.89-17.5-34.3-82.11-34.3-82.11S2678.99,885.56,2674.66,905.84z"/>
				<path class="st27" d="M2719.25,904.72h-9.98v-9.98c0-1.6-1.31-2.91-2.91-2.91c-1.6,0-2.91,1.31-2.91,2.91v9.98h-9.98
					c-1.6,0-2.91,1.31-2.91,2.91c0,1.6,1.31,2.91,2.91,2.91h9.98v9.98c0,1.6,1.31,2.91,2.91,2.91c1.6,0,2.91-1.31,2.91-2.91v-9.98
					h9.98c1.6,0,2.91-1.31,2.91-2.91C2722.16,906.03,2720.85,904.72,2719.25,904.72z"/>
			</g>
			<path class="st27" d="M2717.69,1651.17h-59.2c-0.58,0-1.05-0.47-1.05-1.05v-59.2c0-0.58,0.47-1.05,1.05-1.05h59.2
				c0.58,0,1.05,0.47,1.05,1.05v59.2C2718.74,1650.69,2718.27,1651.17,2717.69,1651.17z"/>
			<path class="st27" d="M2717.69,1817.39h-59.2c-0.58,0-1.05-0.47-1.05-1.05v-59.2c0-0.58,0.47-1.05,1.05-1.05h59.2
				c0.58,0,1.05,0.47,1.05,1.05v59.2C2718.74,1816.92,2718.27,1817.39,2717.69,1817.39z"/>
			<polygon class="st12" points="2669.8,1784.12 2681.07,1808.84 2708.35,1765.74 2679.24,1790.21 			"/>
			<polygon class="st12" points="2669.8,1617.35 2681.07,1642.06 2708.35,1598.96 2679.24,1623.44 			"/>
		</g>
	</g>
</g>
</svg>
